<?xml version="1.0" standalone="no"?>
<!DOCTYPE svg PUBLIC "-//W3C//DTD SVG 20010904//EN"
 "http://www.w3.org/TR/2001/REC-SVG-20010904/DTD/svg10.dtd">
<svg version="1.0" xmlns="http://www.w3.org/2000/svg"
 width="569.000000pt" height="569.000000pt" viewBox="0 0 569.000000 569.000000"
 preserveAspectRatio="xMidYMid meet">
<metadata>
Created by potrace 1.14, written by Peter Selinger 2001-2017
</metadata>
<g transform="translate(0.000000,569.000000) scale(0.100000,-0.100000)"
fill="#000000" stroke="none">
<path d="M1889 4617 c-68 -25 -102 -52 -126 -96 -37 -71 -26 -166 28 -243 32
-44 36 -115 10 -165 -25 -51 -57 -74 -146 -108 -96 -37 -144 -88 -183 -197
-62 -173 -90 -441 -56 -541 21 -63 85 -132 155 -168 38 -19 59 -36 59 -47 0
-70 -26 -275 -36 -279 -6 -2 -76 5 -155 16 -79 11 -179 23 -222 27 -52 5 -81
12 -84 20 -9 23 35 222 74 339 21 61 68 170 105 244 37 73 68 139 68 147 0 23
-46 47 -67 36 -43 -23 -175 -304 -226 -483 -46 -158 -61 -270 -61 -469 0 -258
29 -415 116 -635 86 -217 212 -414 372 -583 81 -85 267 -229 381 -295 90 -52
257 -122 385 -161 325 -98 717 -86 1049 33 352 127 592 308 837 631 218 288
351 769 315 1140 -53 541 -292 965 -726 1285 -141 104 -196 117 -203 47 -3
-28 2 -35 44 -59 98 -57 243 -174 334 -270 204 -212 338 -455 411 -742 16 -62
29 -117 29 -121 0 -4 -48 -11 -107 -14 -172 -11 -365 -34 -550 -66 -94 -17
-174 -30 -177 -30 -14 0 -4 50 12 59 10 5 94 17 186 25 93 9 172 18 175 20 6
4 -20 356 -33 455 -4 26 -16 55 -29 69 -22 23 -22 24 -3 38 11 8 26 14 34 14
7 0 10 5 7 10 -9 15 -21 12 -52 -14 -15 -13 -42 -27 -60 -30 -31 -7 -33 -6
-63 53 -33 65 -37 87 -18 93 15 5 -108 260 -145 300 -16 17 -55 36 -113 55
-124 40 -127 42 -119 86 6 32 11 36 48 43 131 21 202 106 164 196 -20 48 -94
108 -174 139 -36 15 -76 38 -89 53 -67 72 -184 82 -254 22 -8 -7 -39 -16 -68
-20 -194 -25 -242 -156 -106 -292 37 -37 39 -43 27 -60 -23 -31 -12 -68 22
-79 24 -8 29 -15 27 -33 -3 -17 2 -25 17 -29 31 -8 26 -21 -12 -31 -18 -5 -51
-21 -73 -35 l-40 -25 -23 -153 c-12 -85 -24 -164 -27 -177 -4 -18 0 -25 16
-29 15 -4 19 -11 15 -22 -4 -9 -18 -69 -31 -134 -24 -115 -25 -120 -8 -170 9
-29 25 -69 36 -90 18 -36 18 -43 3 -170 -8 -73 -15 -157 -15 -187 0 -30 -3
-78 -6 -106 l-6 -50 -113 -38 -113 -37 -109 37 c-59 20 -111 40 -115 43 -4 3
-14 134 -23 290 l-15 283 41 46 c22 25 70 93 107 150 99 152 89 142 95 102 3
-19 15 -127 26 -240 25 -241 30 -265 57 -265 18 0 19 7 16 130 -2 72 -11 215
-21 319 l-17 189 30 18 c28 17 31 24 33 78 1 33 -2 63 -7 66 -6 4 -10 15 -10
26 0 14 -7 19 -29 19 -26 0 -29 4 -35 43 -9 59 -33 367 -42 520 l-7 127 49 0
c27 0 76 -5 109 -10 56 -9 61 -8 77 12 25 34 8 39 -118 37 -61 -2 -116 1 -123
5 -18 12 -97 -3 -111 -19 -7 -8 -18 -15 -24 -15 -21 0 -151 -67 -166 -85 -13
-17 -13 -18 0 -14 112 40 192 61 200 53 15 -15 79 -647 68 -661 -6 -7 -7 -37
-3 -70 l6 -58 -75 -79 c-42 -44 -78 -77 -81 -74 -3 2 0 19 6 37 12 33 11 46
-16 206 -21 132 -39 161 -147 237 -75 53 -88 66 -88 90 0 21 6 31 24 38 48 18
56 44 56 181 0 120 -1 129 -30 186 -52 104 -138 145 -231 110z m-226 -1308
c15 -22 15 -28 4 -38 -12 -9 -19 -5 -39 21 -39 53 -40 55 -18 95 11 21 21 45
22 53 0 8 4 -12 7 -45 4 -33 14 -72 24 -86z m2711 -470 c4 -23 5 -43 4 -45 -2
-1 -80 -12 -173 -24 -421 -52 -870 -169 -1327 -346 l-47 -18 -83 36 c-46 20
-100 42 -120 49 -41 14 -48 24 -20 32 9 3 114 34 232 70 481 145 892 236 1210
266 63 6 131 13 150 14 19 2 65 5 101 5 l66 2 7 -41z m-3039 -74 c557 -62
1101 -213 1550 -429 404 -195 689 -392 955 -660 l124 -126 -49 -51 c-28 -28
-76 -74 -109 -102 l-58 -51 -25 29 c-224 266 -451 477 -698 644 -452 308
-1067 544 -1730 666 -82 15 -156 29 -162 31 -13 3 -18 55 -7 67 3 3 20 4 37 1
18 -2 95 -11 172 -19z m3035 -34 c0 -11 -4 -30 -9 -43 -8 -21 -20 -26 -93 -37
-288 -43 -710 -173 -1062 -327 l-109 -47 -106 53 -106 53 35 15 c83 35 355
126 513 172 270 77 533 131 807 164 63 8 118 14 123 15 4 1 7 -8 7 -18z
m-2988 -102 c733 -147 1350 -413 1818 -785 148 -118 441 -425 491 -516 7 -14
-6 -26 -79 -71 -48 -30 -111 -66 -140 -81 l-51 -26 -15 22 c-7 13 -39 66 -71
118 -326 544 -933 950 -1800 1205 -99 29 -233 65 -297 80 l-118 28 0 38 c0 45
-32 47 262 -12z m2964 -31 c-3 -13 -6 -33 -6 -44 0 -19 -18 -28 -134 -67 -162
-56 -418 -164 -662 -282 l-182 -87 -106 63 c-58 35 -106 67 -106 70 0 7 169
80 334 144 222 86 501 164 731 205 138 25 139 25 131 -2z m-3011 -89 c591
-157 1016 -346 1403 -624 131 -94 369 -333 459 -460 105 -149 180 -285 162
-295 -20 -13 -188 -67 -230 -75 l-36 -7 -116 164 c-137 193 -278 359 -408 482
-385 362 -854 622 -1352 747 -85 21 -85 21 -91 57 -8 53 -8 62 7 62 6 0 98
-23 202 -51z m2964 -81 c-11 -29 -22 -55 -24 -59 -3 -4 -78 -43 -167 -87 -153
-75 -387 -209 -492 -281 l-46 -32 -85 62 -86 62 103 49 c135 65 393 182 488
220 80 33 310 117 322 117 4 1 -2 -22 -13 -51z m-3007 -48 c613 -176 1104
-506 1525 -1025 102 -125 226 -307 216 -316 -7 -6 -210 -29 -261 -29 -14 0
-30 13 -45 38 -119 187 -189 286 -274 388 -307 365 -699 650 -1173 850 -76 32
-127 60 -131 71 -10 24 -11 63 -1 63 4 0 69 -18 144 -40z m2912 -150 c-20 -34
-68 -104 -107 -156 -60 -78 -92 -108 -195 -184 l-123 -91 -89 72 -89 73 32 21
c149 100 592 343 604 331 2 -2 -13 -31 -33 -66z m-2894 3 c493 -210 855 -498
1218 -968 65 -84 162 -232 162 -246 0 -12 -273 21 -322 40 -14 5 -67 72 -128
161 -269 392 -582 695 -933 902 -118 70 -127 79 -143 145 -8 31 -6 30 146 -34z
m59 -199 c154 -101 306 -227 456 -378 181 -182 304 -336 428 -533 l26 -42 -67
24 c-99 34 -196 80 -294 138 -79 47 -91 58 -119 112 -105 199 -260 388 -450
550 -85 73 -114 115 -135 198 l-7 29 33 -17 c19 -10 76 -46 129 -81z m58 -251
c118 -117 214 -241 318 -413 15 -24 -74 49 -140 115 -75 76 -158 178 -222 275
-101 152 -93 157 44 23z"/>
<path d="M4030 4470 c-58 -82 -95 -216 -88 -323 5 -88 59 -196 141 -283 61
-66 141 -112 297 -174 282 -111 557 -76 739 95 94 88 205 249 199 289 -4 27
-146 103 -268 143 -75 24 -100 28 -215 28 -101 0 -142 -4 -185 -19 -78 -26
-195 -90 -251 -137 l-47 -39 1 72 c1 62 -3 83 -30 140 -17 37 -50 87 -73 112
-49 53 -154 126 -180 126 -10 0 -28 -13 -40 -30z m112 -85 c147 -115 188 -266
113 -414 -23 -46 -45 -72 -45 -54 0 4 -7 49 -15 98 -9 50 -20 117 -26 150 -19
115 -28 137 -52 133 -32 -4 -32 -32 -1 -198 14 -80 28 -161 31 -180 l4 -35
-40 44 c-79 85 -117 200 -101 307 13 93 50 184 74 184 7 0 33 -16 58 -35z
m891 -229 c79 -26 156 -62 191 -89 19 -14 18 -16 -18 -76 -81 -133 -199 -233
-328 -278 -85 -29 -227 -33 -330 -9 -73 18 -228 75 -228 85 0 8 90 32 428 116
145 35 276 70 290 77 16 8 27 21 27 33 0 31 -42 25 -335 -49 -146 -36 -307
-77 -357 -89 -73 -18 -93 -21 -93 -10 0 23 149 171 214 211 149 95 211 113
356 108 80 -3 124 -10 183 -30z"/>
<path d="M864 2485 c-24 -37 -13 -147 30 -310 62 -232 143 -419 253 -585 159
-240 318 -399 561 -562 294 -197 667 -308 1037 -308 439 0 859 150 1206 429
90 73 107 115 58 142 -25 13 -40 5 -149 -87 -116 -96 -189 -143 -325 -209
-861 -419 -1894 -94 -2371 747 -115 203 -214 515 -214 677 0 81 -51 120 -86
66z"/>
</g>
</svg>
